<svg xmlns="http://www.w3.org/2000/svg" xmlns:xlink="http://www.w3.org/1999/xlink" width="768" zoomAndPan="magnify" viewBox="0 0 576 576" height="768" preserveAspectRatio="xMidYMid meet" version="1.0"><path fill="#696969" d="M 289.417969 195.78125 C 238.488281 195.78125 197.203125 237.070312 197.203125 287.996094 C 197.203125 338.925781 238.488281 380.214844 289.417969 380.214844 C 340.347656 380.214844 381.636719 338.925781 381.636719 287.996094 C 381.636719 237.070312 340.347656 195.78125 289.417969 195.78125 Z M 289.417969 195.78125 " fill-opacity="1" fill-rule="nonzero"/><path fill="#696969" d="M 193.902344 159.242188 C 202.328125 167.433594 202.519531 180.90625 194.328125 189.335938 C 141.410156 243.757812 141.410156 332.234375 194.328125 386.660156 C 202.519531 395.089844 202.328125 408.558594 193.902344 416.753906 C 185.476562 424.945312 172.003906 424.757812 163.808594 416.328125 C 94.835938 345.386719 94.835938 230.609375 163.808594 159.664062 C 172.003906 151.238281 185.476562 151.050781 193.902344 159.242188 Z M 384.933594 159.242188 C 393.359375 151.050781 406.835938 151.238281 415.027344 159.664062 C 484 230.609375 484 345.386719 415.027344 416.328125 C 406.835938 424.757812 393.359375 424.945312 384.933594 416.753906 C 376.507812 408.558594 376.316406 395.089844 384.511719 386.660156 C 437.425781 332.234375 437.425781 243.757812 384.511719 189.335938 C 376.316406 180.90625 376.507812 167.433594 384.933594 159.242188 Z M 384.933594 159.242188 " fill-opacity="1" fill-rule="evenodd"/><path fill="#696969" d="M 133.9375 102.714844 C 142.242188 111.035156 142.230469 124.507812 133.910156 132.8125 C 48.050781 218.523438 48.050781 357.472656 133.910156 443.183594 C 142.230469 451.488281 142.242188 464.960938 133.9375 473.28125 C 125.632812 481.597656 112.160156 481.609375 103.84375 473.304688 C 1.328125 370.96875 1.328125 205.027344 103.84375 102.691406 C 112.160156 94.386719 125.632812 94.398438 133.9375 102.714844 Z M 444.898438 102.714844 C 453.203125 94.398438 466.675781 94.386719 474.996094 102.691406 C 577.507812 205.027344 577.507812 370.96875 474.996094 473.304688 C 466.675781 481.609375 453.203125 481.597656 444.898438 473.28125 C 436.597656 464.960938 436.609375 451.488281 444.925781 443.183594 C 530.785156 357.472656 530.785156 218.523438 444.925781 132.8125 C 436.609375 124.507812 436.597656 111.035156 444.898438 102.714844 Z M 444.898438 102.714844 " fill-opacity="1" fill-rule="evenodd"/><path fill="#696969" d="M 381.636719 287.996094 L 197.203125 287.996094 C 197.203125 338.925781 238.488281 380.214844 289.417969 380.214844 C 340.347656 380.214844 381.636719 338.925781 381.636719 287.996094 Z M 381.636719 287.996094 " fill-opacity="1" fill-rule="evenodd"/><path fill="#696969" d="M 424.195312 287.996094 L 466.757812 287.996094 C 466.757812 334.429688 449.515625 380.859375 415.027344 416.328125 C 406.835938 424.757812 393.359375 424.945312 384.933594 416.753906 C 376.507812 408.558594 376.316406 395.089844 384.511719 386.660156 C 410.96875 359.449219 424.195312 323.722656 424.195312 287.996094 Z M 154.640625 287.996094 C 154.640625 323.722656 167.867188 359.449219 194.328125 386.660156 C 202.519531 395.089844 202.328125 408.558594 193.902344 416.753906 C 185.476562 424.945312 172.003906 424.757812 163.808594 416.328125 C 129.324219 380.859375 112.078125 334.429688 112.078125 287.996094 Z M 154.640625 287.996094 " fill-opacity="1" fill-rule="evenodd"/><path fill="#696969" d="M 509.320312 287.996094 L 551.882812 287.996094 C 551.882812 355.066406 526.253906 422.132812 474.996094 473.304688 C 466.675781 481.609375 453.203125 481.597656 444.898438 473.28125 C 436.597656 464.960938 436.609375 451.488281 444.925781 443.183594 C 487.855469 400.328125 509.320312 344.160156 509.320312 287.996094 Z M 69.515625 287.996094 C 69.515625 344.160156 90.980469 400.328125 133.910156 443.183594 C 142.230469 451.488281 142.242188 464.960938 133.9375 473.28125 C 125.632812 481.597656 112.160156 481.609375 103.84375 473.304688 C 52.585938 422.132812 26.957031 355.066406 26.957031 287.996094 Z M 69.515625 287.996094 " fill-opacity="1" fill-rule="evenodd"/></svg>