<svg xmlns="http://www.w3.org/2000/svg" xmlns:xlink="http://www.w3.org/1999/xlink" width="768" zoomAndPan="magnify" viewBox="0 0 576 576" height="768" preserveAspectRatio="xMidYMid meet" version="1.0"><path fill="#ee4d4d" d="M 289.417969 195.863281 C 238.488281 195.863281 197.203125 237.183594 197.203125 288.148438 C 197.203125 339.117188 238.488281 380.4375 289.417969 380.4375 C 340.347656 380.4375 381.636719 339.117188 381.636719 288.148438 C 381.636719 237.183594 340.347656 195.863281 289.417969 195.863281 Z M 289.417969 195.863281 " fill-opacity="1" fill-rule="nonzero"/><path fill="#ee4d4d" d="M 193.902344 159.296875 C 202.328125 167.496094 202.519531 180.980469 194.328125 189.414062 C 141.410156 243.878906 141.410156 332.421875 194.328125 386.886719 C 202.519531 395.320312 202.328125 408.804688 193.902344 417 C 185.476562 425.203125 172.003906 425.011719 163.808594 416.578125 C 94.835938 345.582031 94.835938 230.71875 163.808594 159.722656 C 172.003906 151.289062 185.476562 151.097656 193.902344 159.296875 Z M 384.933594 159.296875 C 393.359375 151.097656 406.835938 151.289062 415.027344 159.722656 C 484 230.71875 484 345.582031 415.027344 416.578125 C 406.835938 425.011719 393.359375 425.203125 384.933594 417 C 376.507812 408.804688 376.316406 395.320312 384.511719 386.886719 C 437.425781 332.421875 437.425781 243.878906 384.511719 189.414062 C 376.316406 180.980469 376.507812 167.496094 384.933594 159.296875 Z M 384.933594 159.296875 " fill-opacity="1" fill-rule="evenodd"/><path fill="#ee4d4d" d="M 133.9375 102.730469 C 142.242188 111.054688 142.230469 124.539062 133.910156 132.847656 C 48.050781 218.621094 48.050781 357.675781 133.910156 443.453125 C 142.230469 451.765625 142.242188 465.246094 133.9375 473.570312 C 125.632812 481.894531 112.160156 481.90625 103.84375 473.597656 C 1.328125 371.183594 1.328125 205.117188 103.84375 102.703125 C 112.160156 94.394531 125.632812 94.40625 133.9375 102.730469 Z M 444.898438 102.730469 C 453.203125 94.40625 466.675781 94.394531 474.996094 102.703125 C 577.507812 205.117188 577.507812 371.183594 474.996094 473.597656 C 466.675781 481.90625 453.203125 481.894531 444.898438 473.570312 C 436.597656 465.246094 436.609375 451.765625 444.925781 443.453125 C 530.785156 357.675781 530.785156 218.621094 444.925781 132.847656 C 436.609375 124.539062 436.597656 111.054688 444.898438 102.730469 Z M 444.898438 102.730469 " fill-opacity="1" fill-rule="evenodd"/><path fill="#d64545" d="M 381.636719 288.148438 L 197.203125 288.148438 C 197.203125 339.117188 238.488281 380.4375 289.417969 380.4375 C 340.347656 380.4375 381.636719 339.117188 381.636719 288.148438 Z M 381.636719 288.148438 " fill-opacity="1" fill-rule="evenodd"/><path fill="#d64545" d="M 424.195312 288.148438 L 466.757812 288.148438 C 466.757812 334.617188 449.515625 381.082031 415.027344 416.578125 C 406.835938 425.011719 393.359375 425.203125 384.933594 417 C 376.507812 408.804688 376.316406 395.320312 384.511719 386.886719 C 410.96875 359.65625 424.195312 323.902344 424.195312 288.148438 Z M 154.640625 288.148438 C 154.640625 323.902344 167.867188 359.65625 194.328125 386.886719 C 202.519531 395.320312 202.328125 408.804688 193.902344 417 C 185.476562 425.203125 172.003906 425.011719 163.808594 416.578125 C 129.324219 381.082031 112.078125 334.617188 112.078125 288.148438 Z M 154.640625 288.148438 " fill-opacity="1" fill-rule="evenodd"/><path fill="#d64545" d="M 509.320312 288.148438 L 551.882812 288.148438 C 551.882812 355.269531 526.253906 422.386719 474.996094 473.597656 C 466.675781 481.90625 453.203125 481.894531 444.898438 473.570312 C 436.597656 465.246094 436.609375 451.765625 444.925781 443.453125 C 487.855469 400.566406 509.320312 344.355469 509.320312 288.148438 Z M 69.515625 288.148438 C 69.515625 344.355469 90.980469 400.566406 133.910156 443.453125 C 142.230469 451.765625 142.242188 465.246094 133.9375 473.570312 C 125.632812 481.894531 112.160156 481.90625 103.84375 473.597656 C 52.585938 422.386719 26.957031 355.269531 26.957031 288.148438 Z M 69.515625 288.148438 " fill-opacity="1" fill-rule="evenodd"/></svg>