<svg xmlns="http://www.w3.org/2000/svg" xmlns:xlink="http://www.w3.org/1999/xlink" zoomAndPan="magnify" preserveAspectRatio="xMidYMid meet" version="1.0" viewBox="57.6 58.31 462.98 455.36"><defs><clipPath id="6ed05a29b1"><path d="M 288 61.8125 L 380 61.8125 L 380 148 L 288 148 Z M 288 61.8125 " clip-rule="nonzero"/></clipPath><clipPath id="2c0977a4f9"><path d="M 57.601562 193 L 154 193 L 154 288 L 57.601562 288 Z M 57.601562 193 " clip-rule="nonzero"/></clipPath><clipPath id="067e7a183a"><path d="M 424 285 L 518.101562 285 L 518.101562 381 L 424 381 Z M 424 285 " clip-rule="nonzero"/></clipPath></defs><path fill="#ee7623" d="M 465.777344 238.933594 L 428.757812 238.933594 C 427.53125 238.933594 426.355469 238.457031 425.488281 237.601562 C 424.621094 236.75 424.132812 235.589844 424.132812 234.382812 L 424.132812 197.976562 C 424.125 197.375 424.242188 196.78125 424.476562 196.222656 C 424.707031 195.667969 425.046875 195.164062 425.476562 194.738281 C 425.90625 194.3125 426.417969 193.972656 426.980469 193.742188 C 427.546875 193.511719 428.148438 193.394531 428.757812 193.394531 L 465.777344 193.394531 C 467.011719 193.394531 468.199219 193.875 469.074219 194.734375 C 469.945312 195.59375 470.4375 196.757812 470.4375 197.976562 L 470.4375 234.382812 C 470.4375 234.984375 470.316406 235.578125 470.082031 236.132812 C 469.847656 236.6875 469.503906 237.191406 469.070312 237.613281 C 468.636719 238.035156 468.121094 238.371094 467.558594 238.597656 C 466.992188 238.824219 466.386719 238.9375 465.777344 238.933594 Z M 465.777344 238.933594 " fill-opacity="1" fill-rule="nonzero"/><path fill="#ee7623" d="M 498.984375 504.574219 L 428.757812 504.574219 C 427.53125 504.574219 426.355469 504.09375 425.488281 503.238281 C 424.621094 502.386719 424.132812 501.230469 424.132812 500.023438 L 424.132812 430.949219 C 424.132812 429.742188 424.621094 428.585938 425.488281 427.730469 C 426.355469 426.878906 427.53125 426.398438 428.757812 426.398438 L 498.984375 426.398438 C 500.214844 426.398438 501.390625 426.878906 502.257812 427.730469 C 503.125 428.585938 503.613281 429.742188 503.613281 430.949219 L 503.613281 500.023438 C 503.613281 501.230469 503.125 502.386719 502.257812 503.238281 C 501.390625 504.09375 500.214844 504.574219 498.984375 504.574219 Z M 498.984375 504.574219 " fill-opacity="1" fill-rule="nonzero"/><path fill="#ee7623" d="M 148.667969 513.675781 L 99.5625 513.675781 C 98.953125 513.675781 98.351562 513.558594 97.789062 513.328125 C 97.230469 513.101562 96.71875 512.765625 96.289062 512.34375 C 95.859375 511.917969 95.519531 511.417969 95.285156 510.867188 C 95.054688 510.316406 94.933594 509.722656 94.933594 509.125 L 94.933594 460.796875 C 94.933594 460.199219 95.054688 459.605469 95.285156 459.054688 C 95.519531 458.503906 95.859375 458 96.289062 457.578125 C 96.71875 457.15625 97.230469 456.820312 97.789062 456.589844 C 98.351562 456.363281 98.953125 456.246094 99.5625 456.246094 L 148.667969 456.246094 C 149.894531 456.246094 151.070312 456.722656 151.9375 457.578125 C 152.804688 458.429688 153.292969 459.589844 153.292969 460.796875 L 153.292969 509.09375 C 153.296875 509.695312 153.179688 510.289062 152.949219 510.847656 C 152.71875 511.402344 152.378906 511.90625 151.949219 512.332031 C 151.519531 512.757812 151.007812 513.09375 150.445312 513.328125 C 149.882812 513.558594 149.277344 513.675781 148.667969 513.675781 Z M 148.667969 513.675781 " fill-opacity="1" fill-rule="nonzero"/><path fill="#ee7623" d="M 239.230469 147.882812 L 202.398438 147.882812 C 201.171875 147.882812 199.996094 147.402344 199.128906 146.546875 C 198.261719 145.695312 197.773438 144.535156 197.773438 143.328125 L 197.773438 107.230469 C 197.773438 106.023438 198.261719 104.867188 199.128906 104.011719 C 199.996094 103.160156 201.171875 102.679688 202.398438 102.679688 L 239.230469 102.679688 C 240.457031 102.679688 241.632812 103.160156 242.5 104.011719 C 243.367188 104.867188 243.855469 106.023438 243.855469 107.230469 L 243.855469 143.328125 C 243.855469 144.535156 243.367188 145.695312 242.5 146.546875 C 241.632812 147.402344 240.457031 147.882812 239.230469 147.882812 Z M 239.230469 147.882812 " fill-opacity="1" fill-rule="nonzero"/><path fill="#ee7623" d="M 496.65625 147.882812 L 428.757812 147.882812 C 427.53125 147.882812 426.355469 147.402344 425.488281 146.546875 C 424.621094 145.695312 424.132812 144.539062 424.132812 143.332031 L 424.132812 76.550781 C 424.125 75.949219 424.242188 75.355469 424.476562 74.796875 C 424.707031 74.242188 425.046875 73.738281 425.476562 73.3125 C 425.90625 72.886719 426.417969 72.546875 426.980469 72.316406 C 427.546875 72.085938 428.148438 71.96875 428.757812 71.96875 L 496.65625 71.96875 C 497.28125 71.945312 497.902344 72.050781 498.484375 72.269531 C 499.066406 72.492188 499.597656 72.828125 500.042969 73.253906 C 500.488281 73.683594 500.84375 74.195312 501.085938 74.761719 C 501.324219 75.328125 501.445312 75.9375 501.441406 76.550781 L 501.441406 143.332031 C 501.441406 143.941406 501.316406 144.546875 501.074219 145.109375 C 500.832031 145.671875 500.476562 146.179688 500.03125 146.605469 C 499.585938 147.027344 499.054688 147.359375 498.476562 147.582031 C 497.894531 147.800781 497.277344 147.902344 496.65625 147.882812 Z M 496.65625 147.882812 " fill-opacity="1" fill-rule="nonzero"/><path fill="#ee7623" d="M 148.667969 147.878906 L 88.480469 147.878906 C 87.871094 147.882812 87.265625 147.769531 86.699219 147.542969 C 86.136719 147.316406 85.621094 146.980469 85.1875 146.558594 C 84.753906 146.136719 84.410156 145.632812 84.175781 145.078125 C 83.941406 144.523438 83.820312 143.929688 83.820312 143.328125 L 83.820312 84.132812 C 83.820312 83.535156 83.941406 82.9375 84.175781 82.382812 C 84.410156 81.832031 84.753906 81.328125 85.1875 80.902344 C 85.621094 80.480469 86.136719 80.148438 86.699219 79.917969 C 87.265625 79.691406 87.871094 79.578125 88.480469 79.582031 L 148.667969 79.582031 C 149.894531 79.582031 151.070312 80.0625 151.9375 80.914062 C 152.808594 81.769531 153.292969 82.925781 153.292969 84.132812 L 153.292969 143.328125 C 153.292969 144.535156 152.808594 145.695312 151.9375 146.546875 C 151.070312 147.402344 149.894531 147.878906 148.667969 147.878906 Z M 148.667969 147.878906 " fill-opacity="1" fill-rule="nonzero"/><g clip-path="url(#6ed05a29b1)"><path fill="#ee7623" d="M 374.898438 147.882812 L 293.054688 147.882812 C 291.828125 147.882812 290.652344 147.402344 289.785156 146.546875 C 288.917969 145.695312 288.429688 144.539062 288.429688 143.332031 L 288.429688 62.835938 C 288.433594 62.238281 288.558594 61.644531 288.792969 61.09375 C 289.03125 60.542969 289.375 60.042969 289.808594 59.625 C 290.238281 59.207031 290.75 58.875 291.3125 58.648438 C 291.878906 58.421875 292.480469 58.308594 293.085938 58.3125 L 374.929688 58.3125 C 376.15625 58.3125 377.335938 58.792969 378.203125 59.648438 C 379.070312 60.5 379.558594 61.65625 379.558594 62.863281 L 379.558594 143.363281 C 379.554688 143.960938 379.429688 144.550781 379.195312 145.101562 C 378.957031 145.652344 378.613281 146.152344 378.179688 146.570312 C 377.75 146.992188 377.234375 147.324219 376.671875 147.546875 C 376.109375 147.773438 375.507812 147.886719 374.898438 147.882812 Z M 374.898438 147.882812 " fill-opacity="1" fill-rule="nonzero"/></g><g clip-path="url(#2c0977a4f9)"><path fill="#ee7623" d="M 148.667969 287.417969 L 62.226562 287.417969 C 61.015625 287.417969 59.855469 286.953125 58.988281 286.117188 C 58.125 285.285156 57.625 284.152344 57.601562 282.960938 L 57.601562 197.976562 C 57.597656 197.375 57.714844 196.78125 57.945312 196.222656 C 58.175781 195.667969 58.515625 195.164062 58.945312 194.738281 C 59.375 194.3125 59.886719 193.972656 60.449219 193.742188 C 61.015625 193.511719 61.617188 193.394531 62.226562 193.394531 L 148.667969 193.394531 C 149.277344 193.394531 149.882812 193.511719 150.445312 193.742188 C 151.007812 193.972656 151.519531 194.3125 151.949219 194.738281 C 152.378906 195.164062 152.71875 195.667969 152.953125 196.222656 C 153.183594 196.78125 153.296875 197.375 153.292969 197.976562 L 153.292969 282.960938 C 153.269531 284.152344 152.769531 285.285156 151.90625 286.117188 C 151.042969 286.953125 149.878906 287.417969 148.667969 287.417969 Z M 148.667969 287.417969 " fill-opacity="1" fill-rule="nonzero"/></g><path fill="#ee7623" d="M 148.667969 410.144531 L 80.738281 410.144531 C 79.507812 410.144531 78.332031 409.664062 77.464844 408.8125 C 76.597656 407.960938 76.109375 406.800781 76.109375 405.59375 L 76.109375 338.8125 C 76.109375 337.605469 76.597656 336.449219 77.464844 335.59375 C 78.332031 334.742188 79.507812 334.261719 80.738281 334.261719 L 148.667969 334.261719 C 149.894531 334.261719 151.070312 334.742188 151.9375 335.59375 C 152.804688 336.449219 153.292969 337.605469 153.292969 338.8125 L 153.292969 405.59375 C 153.292969 406.800781 152.804688 407.960938 151.9375 408.8125 C 151.070312 409.664062 149.894531 410.144531 148.667969 410.144531 Z M 148.667969 410.144531 " fill-opacity="1" fill-rule="nonzero"/><path fill="#ee7623" d="M 306.277344 513.675781 L 209.042969 513.675781 C 207.8125 513.675781 206.636719 513.195312 205.769531 512.34375 C 204.902344 511.488281 204.414062 510.332031 204.414062 509.125 L 204.414062 413.488281 C 204.414062 412.28125 204.902344 411.125 205.769531 410.269531 C 206.636719 409.417969 207.8125 408.9375 209.042969 408.9375 L 306.277344 408.9375 C 307.503906 408.9375 308.679688 409.417969 309.546875 410.269531 C 310.417969 411.125 310.90625 412.28125 310.90625 413.488281 L 310.90625 509.125 C 310.90625 510.332031 310.417969 511.488281 309.546875 512.34375 C 308.679688 513.195312 307.503906 513.675781 306.277344 513.675781 Z M 306.277344 513.675781 " fill-opacity="1" fill-rule="nonzero"/><path fill="#ee7623" d="M 386.011719 454.605469 L 348.992188 454.605469 C 347.765625 454.605469 346.589844 454.125 345.722656 453.273438 C 344.855469 452.417969 344.367188 451.261719 344.367188 450.054688 L 344.367188 413.488281 C 344.367188 412.28125 344.855469 411.125 345.722656 410.269531 C 346.589844 409.417969 347.765625 408.9375 348.992188 408.9375 L 386.011719 408.9375 C 386.621094 408.933594 387.226562 409.046875 387.792969 409.277344 C 388.355469 409.503906 388.871094 409.835938 389.304688 410.261719 C 389.738281 410.683594 390.082031 411.1875 390.316406 411.742188 C 390.550781 412.292969 390.671875 412.890625 390.671875 413.488281 L 390.671875 449.929688 C 390.6875 450.539062 390.578125 451.148438 390.351562 451.714844 C 390.125 452.285156 389.785156 452.800781 389.347656 453.238281 C 388.914062 453.675781 388.394531 454.019531 387.820312 454.257812 C 387.25 454.488281 386.632812 454.609375 386.011719 454.605469 Z M 386.011719 454.605469 " fill-opacity="1" fill-rule="nonzero"/><path fill="#ee7623" d="M 372.632812 363.394531 L 208.949219 363.394531 C 207.71875 363.394531 206.542969 362.914062 205.675781 362.0625 C 204.808594 361.207031 204.320312 360.050781 204.320312 358.84375 L 204.320312 197.851562 C 204.316406 197.25 204.433594 196.65625 204.664062 196.097656 C 204.894531 195.542969 205.234375 195.039062 205.664062 194.613281 C 206.09375 194.1875 206.605469 193.847656 207.167969 193.617188 C 207.734375 193.386719 208.335938 193.269531 208.949219 193.269531 L 372.632812 193.269531 C 373.242188 193.269531 373.847656 193.386719 374.410156 193.617188 C 374.976562 193.847656 375.488281 194.1875 375.917969 194.613281 C 376.347656 195.039062 376.6875 195.542969 376.917969 196.097656 C 377.148438 196.65625 377.265625 197.25 377.261719 197.851562 L 377.261719 358.84375 C 377.261719 360.050781 376.773438 361.207031 375.90625 362.0625 C 375.039062 362.914062 373.859375 363.394531 372.632812 363.394531 Z M 372.632812 363.394531 " fill-opacity="1" fill-rule="nonzero"/><g clip-path="url(#067e7a183a)"><path fill="#ee7623" d="M 515.953125 380.855469 L 428.757812 380.855469 C 427.53125 380.855469 426.355469 380.378906 425.488281 379.523438 C 424.621094 378.671875 424.132812 377.511719 424.132812 376.304688 L 424.132812 290.515625 C 424.132812 289.308594 424.621094 288.148438 425.488281 287.296875 C 426.355469 286.441406 427.53125 285.960938 428.757812 285.960938 L 515.953125 285.960938 C 517.179688 285.960938 518.359375 286.441406 519.226562 287.296875 C 520.09375 288.148438 520.582031 289.308594 520.582031 290.515625 L 520.582031 376.273438 C 520.585938 376.875 520.46875 377.46875 520.238281 378.027344 C 520.007812 378.582031 519.664062 379.085938 519.238281 379.511719 C 518.804688 379.9375 518.292969 380.273438 517.730469 380.507812 C 517.167969 380.738281 516.5625 380.855469 515.953125 380.855469 Z M 515.953125 380.855469 " fill-opacity="1" fill-rule="nonzero"/></g></svg>